# xmcd
#
# Track frame offsets: 
#        150
#        17187
#        39312
#        53367
#        69932
#        94727
#        116237
#        133180
#        154615
#        172690
#
# Disc length: 2509 seconds
#
# Revision: 1
# Processed by: cddbd v1.5.2PL0 Copyright (c) Steve Scherf et al.
# Submitted via: ExactAudioCopy v0.99pb5
#
DISCID=7409cb0a
DTITLE=Rumpelstilz - La Dolce Vita
DYEAR=1977
DGENRE=Swiss Rock
TTITLE0=Rote Wy
TTITLE1=Silbernadle
TTITLE2=Schwoofe uf dr Schtrass
TTITLE3=Die gueti alti Zyt
TTITLE4=Die gfallene Ängel
TTITLE5=I chume nid los
TTITLE6=Mescalito
TTITLE7=I wott Di
TTITLE8=Tänzerin
TTITLE9=Alpsäge
EXTD=
EXTT0=
EXTT1=
EXTT2=
EXTT3=
EXTT4=
EXTT5=
EXTT6=
EXTT7=
EXTT8=
EXTT9=
PLAYORDER=
